<svg xmlns="http://www.w3.org/2000/svg" width="47.635" height="47" viewBox="0 0 47.635 47"><path d="M41.248,45.368H33.639v-.836h-1.7v4.178H30.242V45.368h-7.33V42.843H48.024V37.828H27.173V3.382H25.479v37.79H22.91V3.382H21.215v37.79H16.247V39.5h3.267V37.828h-4.96l-.132.006v3.339H12.741V37.83H11.046v3.343l-8.964.009V37.839L.39,37.829v5.014H21.217v5.868h-1.69V45.368h-5.09v3.343H12.743V45.368H7.664v3.343H2.085V45.368H.389v5.014H9.356V47.041h1.694v3.341H48.022V45.368H42.944v3.343h-1.7m-25.119,0V47.044h1.7v1.667Zm28.519-1.67h1.694v1.67H44.647Zm-11.009,0h5.915v1.67H33.638Zm-5.1,0v1.67H22.911v-1.67Zm17.79-5.869H27.173V39.5H46.328Z" transform="translate(-0.389 -3.382)" fill="#0068b3" fill-rule="evenodd"/><rect width="1.703" height="1.337" transform="translate(15.718 39.971)" fill="#0068b3"/><path d="M46.7,33.686v4.258H58.15V36.25H48.407L48.4,33.686h7.183V32l-7.185,0V15.878H46.7V31.992H44.133V10.739H42.439V33.686H46.7Z" transform="translate(-13.085 -5.603)" fill="#0068b3" fill-rule="evenodd"/><path d="M19.757,10.739H18.063V31.992l-2.57-.008,0-16.106H13.8V31.985l-7.16.006v1.694l7.16-.009-.006,2.566-9.725,0,0,1.7,9.718-.009h1.7V33.677l4.266.009v-.107" transform="translate(-1.499 -5.603)" fill="#0068b3" fill-rule="evenodd"/><rect width="3.826" height="1.695" transform="translate(4.26 34.428)" fill="#0068b3"/></svg>